<svg xmlns="http://www.w3.org/2000/svg" viewBox="0 0 447.23 250.72" width="447.23" height="250.72" role="img" aria-label="build-universe lockup"><title>build-universe lockup</title><defs></defs><g transform="translate(143.62 0) scale(0.31)"><desc>A ring drawn around a bright core, with the lattice element inside the ring.</desc><defs><radialGradient id="mk-build-universe-fd0-halo" r="50%"><stop offset="0" stop-color="#ffab52" stop-opacity="0.34"/><stop offset="0.35" stop-color="#ffab52" stop-opacity="0.1"/><stop offset="1" stop-color="#ffab52" stop-opacity="0"/></radialGradient><radialGradient id="mk-build-universe-fd0-core"><stop offset="0" stop-color="#fff7e8"/><stop offset="0.45" stop-color="#fff7e8" stop-opacity="0.96"/><stop offset="0.72" stop-color="#ffd592" stop-opacity="0.55"/><stop offset="1" stop-color="#ffab52" stop-opacity="0"/></radialGradient></defs><circle cx="256" cy="256" r="196" fill="none" stroke="#e6e1d6" stroke-width="18" opacity="1"/><line x1="396" y1="201" x2="116" y2="201" stroke="#e6e1d6" stroke-width="9.9" stroke-opacity="1" stroke-linecap="round"/><line x1="311" y1="116" x2="311" y2="396" stroke="#e6e1d6" stroke-width="9.9" stroke-opacity="1" stroke-linecap="round"/><line x1="396" y1="311" x2="116" y2="311" stroke="#e6e1d6" stroke-width="9.9" stroke-opacity="1" stroke-linecap="round"/><line x1="201" y1="116" x2="201" y2="396" stroke="#e6e1d6" stroke-width="9.9" stroke-opacity="1" stroke-linecap="round"/><circle cx="256" cy="256" r="95.2" fill="url(#mk-build-universe-fd0-halo)"/><circle cx="256" cy="256" r="38.08" fill="url(#mk-build-universe-fd0-core)"/><polyline points="368.07,78.24 370.28,79.66 372.48,81.1 374.65,82.57 376.81,84.07 378.95,85.59 381.07,87.14 383.17,88.72 385.26,90.32 387.32,91.95 389.36,93.6 391.38,95.28 393.37,96.99 395.35,98.72 397.31,100.47 399.24,102.25 401.15,104.05 403.04,105.88 404.9,107.73 406.74,109.6 408.56,111.5 410.36,113.41 412.13,115.36 413.87,117.32 415.59,119.3 417.29,121.31 418.96,123.33 420.61,125.38 422.23,127.45 423.82,129.54 425.39,131.64 426.93,133.77 428.44,135.92 429.93,138.08 431.39,140.27 432.82,142.47 434.23,144.69 435.61,146.92 436.96,149.18 438.28,151.45 439.57,153.73" fill="none" stroke="#ff3d6e" stroke-width="1.7" stroke-opacity="0.9" stroke-linecap="round" stroke-linejoin="round"/><polyline points="369.11,76.59 371.35,78.02 373.56,79.47 375.76,80.96 377.94,82.47 380.1,84.01 382.24,85.57 384.36,87.16 386.46,88.78 388.54,90.42 390.6,92.09 392.64,93.79 394.65,95.51 396.65,97.25 398.62,99.02 400.57,100.82 402.5,102.64 404.41,104.48 406.29,106.35 408.15,108.24 409.98,110.15 411.79,112.09 413.58,114.05 415.34,116.03 417.08,118.03 418.79,120.05 420.48,122.1 422.14,124.17 423.77,126.25 425.38,128.36 426.96,130.49 428.52,132.63 430.05,134.8 431.55,136.99 433.02,139.19 434.47,141.41 435.89,143.65 437.28,145.91 438.64,148.18 439.97,150.47 441.28,152.78" fill="none" stroke="#ff8f3a" stroke-width="1.7" stroke-opacity="0.9" stroke-linecap="round" stroke-linejoin="round"/><polyline points="370.15,74.94 372.41,76.38 374.65,77.85 376.86,79.34 379.06,80.87 381.24,82.42 383.4,84 385.54,85.6 387.66,87.24 389.76,88.9 391.84,90.58 393.9,92.29 395.93,94.03 397.94,95.79 399.94,97.58 401.9,99.39 403.85,101.22 405.77,103.08 407.67,104.97 409.55,106.88 411.4,108.81 413.23,110.76 415.03,112.74 416.81,114.74 418.56,116.76 420.29,118.8 421.99,120.87 423.67,122.95 425.32,125.06 426.94,127.18 428.54,129.33 430.11,131.5 431.65,133.68 433.17,135.89 434.66,138.11 436.12,140.35 437.55,142.62 438.95,144.89 440.32,147.19 441.67,149.5 442.99,151.83" fill="none" stroke="#ffe04a" stroke-width="1.7" stroke-opacity="0.9" stroke-linecap="round" stroke-linejoin="round"/><polyline points="371.2,73.28 373.47,74.74 375.73,76.22 377.97,77.73 380.19,79.27 382.38,80.83 384.56,82.43 386.72,84.05 388.86,85.7 390.98,87.37 393.08,89.07 395.15,90.8 397.21,92.55 399.24,94.33 401.25,96.13 403.24,97.96 405.2,99.81 407.14,101.69 409.06,103.59 410.95,105.51 412.82,107.46 414.67,109.44 416.49,111.43 418.28,113.45 420.05,115.49 421.79,117.55 423.51,119.63 425.2,121.74 426.87,123.86 428.5,126.01 430.12,128.17 431.7,130.36 433.26,132.57 434.79,134.79 436.29,137.04 437.76,139.3 439.2,141.58 440.62,143.88 442.01,146.2 443.37,148.53 444.69,150.88" fill="none" stroke="#5dff8f" stroke-width="1.7" stroke-opacity="0.9" stroke-linecap="round" stroke-linejoin="round"/><polyline points="372.24,71.63 374.54,73.1 376.81,74.59 379.07,76.12 381.31,77.67 383.53,79.25 385.73,80.86 387.91,82.49 390.07,84.15 392.2,85.84 394.32,87.56 396.41,89.3 398.49,91.07 400.54,92.86 402.57,94.68 404.57,96.53 406.55,98.4 408.51,100.29 410.44,102.21 412.35,104.15 414.24,106.12 416.1,108.11 417.94,110.12 419.75,112.16 421.53,114.21 423.29,116.3 425.03,118.4 426.73,120.52 428.41,122.67 430.07,124.83 431.69,127.02 433.29,129.22 434.86,131.45 436.4,133.69 437.92,135.96 439.41,138.24 440.86,140.54 442.29,142.86 443.69,145.2 445.06,147.56 446.4,149.93" fill="none" stroke="#3fd8ff" stroke-width="1.7" stroke-opacity="0.9" stroke-linecap="round" stroke-linejoin="round"/><polyline points="373.28,69.98 375.6,71.46 377.9,72.97 380.17,74.5 382.43,76.07 384.67,77.66 386.89,79.29 389.09,80.94 391.27,82.61 393.42,84.32 395.56,86.05 397.67,87.81 399.76,89.59 401.83,91.4 403.88,93.24 405.9,95.1 407.9,96.98 409.88,98.89 411.83,100.83 413.76,102.79 415.66,104.77 417.54,106.78 419.39,108.81 421.22,110.87 423.02,112.94 424.79,115.04 426.54,117.16 428.26,119.31 429.96,121.47 431.63,123.65 433.27,125.86 434.88,128.09 436.47,130.33 438.02,132.6 439.55,134.88 441.05,137.19 442.52,139.51 443.96,141.85 445.37,144.21 446.76,146.58 448.11,148.98" fill="none" stroke="#5b6bff" stroke-width="1.7" stroke-opacity="0.9" stroke-linecap="round" stroke-linejoin="round"/><polyline points="374.33,68.32 376.66,69.82 378.98,71.34 381.28,72.89 383.56,74.47 385.82,76.08 388.06,77.72 390.27,79.38 392.47,81.07 394.65,82.79 396.8,84.54 398.93,86.31 401.04,88.11 403.13,89.94 405.19,91.79 407.24,93.67 409.25,95.57 411.25,97.5 413.21,99.45 415.16,101.43 417.08,103.43 418.97,105.46 420.84,107.5 422.69,109.58 424.5,111.67 426.29,113.79 428.06,115.93 429.8,118.09 431.51,120.27 433.19,122.48 434.84,124.7 436.47,126.95 438.07,129.21 439.64,131.5 441.18,133.81 442.7,136.13 444.18,138.47 445.63,140.83 447.06,143.21 448.45,145.61 449.82,148.02" fill="none" stroke="#c35cff" stroke-width="1.7" stroke-opacity="0.9" stroke-linecap="round" stroke-linejoin="round"/></g><path fill="#e6e1d6" d="M41.64 231.16Q38.95 231.16 36.56 230.09Q34.18 229.01 32.43 226.76Q30.68 224.51 29.81 220.88L31.76 221.35V230.56H24.37V183.72H31.76V206.7H30.08Q30.75 203.55 32.4 201.36Q34.04 199.18 36.43 198Q38.82 196.83 41.64 196.83Q45.67 196.83 48.93 198.88Q52.19 200.92 54.14 204.76Q56.09 208.59 56.09 213.96Q56.09 218.87 54.31 222.76Q52.52 226.66 49.3 228.91Q46.07 231.16 41.64 231.16ZM39.82 224.31Q42.44 224.31 44.43 223.03Q46.41 221.76 47.48 219.4Q48.56 217.05 48.56 213.96Q48.56 210.87 47.48 208.52Q46.41 206.17 44.43 204.89Q42.44 203.61 39.82 203.61Q37.2 203.61 35.22 204.92Q33.24 206.23 32.16 208.55Q31.09 210.87 31.09 213.96Q31.09 217.05 32.16 219.4Q33.24 221.76 35.22 223.03Q37.2 224.31 39.82 224.31ZM73.09 231.16Q69.19 231.16 66.54 229.62Q63.88 228.07 62.54 225.18Q61.19 222.29 61.19 218.2V197.43H68.65V216.18Q68.65 218.8 69.29 220.72Q69.93 222.63 71.37 223.64Q72.82 224.65 75.31 224.65Q78.2 224.65 79.84 223.13Q81.49 221.62 82.19 218.7Q82.9 215.78 82.9 211.68V197.43H90.36V230.56H82.9V223.44L84.18 223.91Q82.63 227.67 79.71 229.42Q76.78 231.16 73.09 231.16ZM97.41 230.56V197.43H104.87V230.56ZM97.08 191.99V183.72H105.21V191.99ZM119.19 231.16Q115.96 231.16 113.81 229.18Q111.66 227.2 111.66 222.83V183.72H119.12V221.35Q119.12 222.9 119.83 223.6Q120.53 224.31 121.67 224.31Q122.28 224.31 122.92 224.18Q123.56 224.04 124.23 223.84V230.16Q122.95 230.69 121.61 230.93Q120.26 231.16 119.19 231.16ZM141.43 231.16Q137 231.16 133.74 228.91Q130.48 226.66 128.73 222.76Q126.98 218.87 126.98 213.96Q126.98 208.59 128.9 204.76Q130.81 200.92 134.11 198.88Q137.4 196.83 141.43 196.83Q144.25 196.83 146.64 197.97Q149.02 199.11 150.67 201.29Q152.32 203.48 152.99 206.64L151.24 206.7V183.72H158.7V230.56H151.24V221.35L153.26 220.88Q152.38 224.51 150.6 226.76Q148.82 229.01 146.47 230.09Q144.12 231.16 141.43 231.16ZM143.24 224.31Q145.87 224.31 147.81 223.03Q149.76 221.76 150.84 219.4Q151.91 217.05 151.91 213.96Q151.91 210.87 150.84 208.55Q149.76 206.23 147.81 204.92Q145.87 203.61 143.24 203.61Q140.62 203.61 138.64 204.89Q136.66 206.17 135.55 208.52Q134.44 210.87 134.44 213.96Q134.44 217.05 135.55 219.4Q136.66 221.76 138.64 223.03Q140.62 224.31 143.24 224.31ZM164.08 213.29V207.78H180.74V213.29ZM197.54 231.16Q193.64 231.16 190.99 229.62Q188.34 228.07 186.99 225.18Q185.65 222.29 185.65 218.2V197.43H193.11V216.18Q193.11 218.8 193.75 220.72Q194.38 222.63 195.83 223.64Q197.27 224.65 199.76 224.65Q202.65 224.65 204.3 223.13Q205.94 221.62 206.65 218.7Q207.35 215.78 207.35 211.68V197.43H214.81V230.56H207.35V223.44L208.63 223.91Q207.08 227.67 204.16 229.42Q201.24 231.16 197.54 231.16ZM221.94 230.56V197.43H229.4V204.76L228.05 205.09Q228.92 202.2 230.6 200.39Q232.28 198.57 234.54 197.7Q236.79 196.83 239.27 196.83Q244.85 196.83 247.98 200.02Q251.1 203.21 251.1 209.12V230.56H243.64V211.88Q243.64 207.44 242.03 205.36Q240.42 203.28 237.06 203.28Q234.57 203.28 232.86 204.45Q231.14 205.63 230.27 208.12Q229.4 210.6 229.4 214.43V230.56ZM257.75 230.56V197.43H265.21V230.56ZM257.42 191.99V183.72H265.55V191.99ZM282.55 230.56 269.04 197.43H277.24L285.64 220.88L294.18 197.43H302.24L288.73 230.56ZM319.58 231.16Q315.41 231.16 312.35 229.82Q309.3 228.48 307.35 226.06Q305.4 223.64 304.46 220.58Q303.52 217.52 303.52 214.23Q303.52 210.94 304.42 207.81Q305.33 204.69 307.21 202.2Q309.09 199.72 312.05 198.27Q315.01 196.83 319.04 196.83Q322.87 196.83 325.73 198.14Q328.58 199.45 330.46 201.76Q332.35 204.08 333.25 207.04Q334.16 210 334.16 213.36Q334.16 213.83 334.13 214.7Q334.09 215.57 333.96 216.45H310.98Q311.24 220.41 313.66 222.5Q316.08 224.58 319.85 224.58Q322.6 224.58 324.89 223.71Q327.17 222.83 329.05 220.95L333.15 225.92Q331.07 227.8 328.99 228.95Q326.9 230.09 324.65 230.63Q322.4 231.16 319.58 231.16ZM326.84 212.68Q326.97 212.15 327 211.61Q327.04 211.07 327.04 210.53Q327.04 209.06 326.53 207.71Q326.03 206.37 325.02 205.33Q324.01 204.28 322.53 203.65Q321.06 203.01 319.17 203.01Q316.55 203.01 314.77 204.15Q312.99 205.29 312.02 207.07Q311.04 208.85 310.84 210.94H329.25ZM339.74 230.56V197.43H347.26V206.37L345.85 206.57Q346.19 203.68 347.8 201.5Q349.41 199.31 351.73 198.07Q354.05 196.83 356.34 196.83Q357.95 196.83 359.43 197.23Q360.91 197.63 362.52 198.57L358.89 205.29Q358.15 204.82 356.97 204.52Q355.8 204.22 354.72 204.22Q353.31 204.22 351.93 204.76Q350.56 205.29 349.48 206.4Q348.41 207.51 347.87 209.26Q347.53 210.2 347.36 211.71Q347.2 213.22 347.2 215.91V230.56ZM376.56 231.16Q373 231.16 370.25 230.12Q367.49 229.08 365.61 227.47Q363.73 225.86 362.52 224.24L367.63 219.81Q368.9 221.89 371.15 223.5Q373.4 225.12 376.63 225.12Q379.32 225.12 380.9 223.97Q382.48 222.83 382.48 221.15Q382.48 219.67 381.47 218.83Q380.46 217.99 378.85 217.39Q377.24 216.78 375.29 216.31Q373.4 215.84 371.46 215.14Q369.51 214.43 367.86 213.36Q366.21 212.28 365.21 210.6Q364.2 208.92 364.2 206.44Q364.2 202.07 367.56 199.45Q370.92 196.83 376.36 196.83Q380.26 196.83 383.48 198.37Q386.71 199.92 388.52 203.01L383.89 206.57Q382.54 204.55 380.53 203.55Q378.51 202.54 376.16 202.54Q374.01 202.54 372.56 203.41Q371.12 204.28 371.12 205.7Q371.12 206.77 371.79 207.44Q372.46 208.12 373.88 208.65Q375.29 209.19 377.44 209.73Q379.45 210.2 381.6 210.87Q383.75 211.54 385.6 212.65Q387.45 213.76 388.63 215.61Q389.8 217.46 389.8 220.35Q389.8 223.57 388.16 226.02Q386.51 228.48 383.52 229.82Q380.53 231.16 376.56 231.16ZM409.76 231.16Q405.59 231.16 402.54 229.82Q399.48 228.48 397.53 226.06Q395.58 223.64 394.64 220.58Q393.7 217.52 393.7 214.23Q393.7 210.94 394.61 207.81Q395.51 204.69 397.4 202.2Q399.28 199.72 402.23 198.27Q405.19 196.83 409.22 196.83Q413.05 196.83 415.91 198.14Q418.76 199.45 420.65 201.76Q422.53 204.08 423.44 207.04Q424.34 210 424.34 213.36Q424.34 213.83 424.31 214.7Q424.28 215.57 424.14 216.45H401.16Q401.43 220.41 403.85 222.5Q406.27 224.58 410.03 224.58Q412.78 224.58 415.07 223.71Q417.35 222.83 419.24 220.95L423.33 225.92Q421.25 227.8 419.17 228.95Q417.08 230.09 414.83 230.63Q412.58 231.16 409.76 231.16ZM417.02 212.68Q417.15 212.15 417.19 211.61Q417.22 211.07 417.22 210.53Q417.22 209.06 416.72 207.71Q416.21 206.37 415.2 205.33Q414.2 204.28 412.72 203.65Q411.24 203.01 409.36 203.01Q406.74 203.01 404.96 204.15Q403.17 205.29 402.2 207.07Q401.23 208.85 401.02 210.94H419.44Z"/></svg>
